<svg xmlns="http://www.w3.org/2000/svg" id="Layer_2" viewBox="0 0 1739.954 190.0723" width="1739.9539794921875" height="190.07229614257812"><g id="Components"><g id="_8ec14a62-141e-4979-8d7f-fa580961750c_1"><path d="M188.4511,84.8984v20.2754h-55.6424l-17.1985-17.209-3.066-3.0664-2.8286-2.8281-.2994-.2891c-1.5381-1.4043-3.2415-2.5811-5.0687-3.5-1.8169-.9189-3.7473-1.5791-5.75-1.9717-1.4349-.2783-2.9008-.4336-4.3874-.4229-1.4762,0-2.9421.1445-4.3771.4336-2.0027.4023-3.9435,1.0635-5.7604,1.9922-1.8272.9287-3.5305,2.1055-5.0584,3.5205l-3.0763,3.0762-3.0866,3.0967-17.1676,17.1777H0v-20.2744h69.7749L20.0891,35.1816l14.339-14.3281,49.6652,49.6963V0h20.2749v70.5498l49.6549-49.6963,14.339,14.3281-49.6858,49.7168h69.7749Z" style="fill:#ff6c6c; stroke-width:0px;"></path><path d="M168.3928,154.8594l-14.339,14.3291-49.6859-49.7168v70.6006h-20.2749v-70.5498l-49.6652,49.6963-14.339-14.3281,49.6755-49.7168,10.1271-10.1377,4.1912-4.1914,2.9628-2.9727.031-.0312c1.7343-1.7451,4.0364-2.7773,6.483-2.9424h1.373c2.1782.1445,4.2532,1.002,5.9152,2.4258.1961.166.382.3311.5678.5166l2.9421,2.9424,4.2119,4.2119,10.1581,10.1582,49.6549,49.6855.0103.0205Z" style="fill:#223ab9; stroke-width:0px;"></path><path d="M423.4289,105.4727h73.4603v-.4541c0-20.9248-12.0576-30.9287-36.1624-30.9287s-35.9352,11.1396-37.2979,31.3828ZM400.2325,113.6592c0-35.2539,24.1048-58.9043,60.9485-58.9043s58.9045,19.335,58.9045,53.6709c0,4.0977-.2271,7.2773-.9084,10.6846h-95.9753c.9084,21.833,11.6033,33.4258,37.7522,33.4258,23.6506,0,33.4267-7.7314,33.4267-21.1523v-1.8164h24.559v2.0439c0,24.1045-23.6506,40.7051-57.3147,40.7051-37.0708,0-61.4028-20.9258-61.4028-58.6777l.0103.0205Z" style="fill:#000; stroke-width:0px;"></path><path d="M533.0414,170.0654V57.0361h22.515v30.4746h1.5898c3.4066-18.1895,15.6913-32.7461,38.8877-32.7461,25.6946,0,36.8437,18.417,36.8437,39.7969v14.7822h-24.3319v-10.0029c0-16.1455-6.8237-23.6504-23.6506-23.6504-19.3354,0-27.2947,10.6846-27.2947,30.9287v63.4463h-24.559Z" style="fill:#000; stroke-width:0px;"></path><path d="M642.8809,170.0654V57.0361h22.515v34.1084h1.3627c2.9525-18.8711,15.2372-36.3896,43.4403-36.3896,25.6946,0,39.5691,15.6914,42.7589,37.2979h1.3627c2.9525-19.3359,15.6914-37.2979,44.3488-37.2979s44.1216,20.0166,44.1216,47.3008v68h-24.3319v-61.4033c0-22.2881-8.8677-31.8369-30.7014-31.8369-24.1048,0-32.7454,12.2852-32.7454,37.2979v55.9424h-24.3319v-61.4033c0-22.2881-8.6406-31.8369-30.4743-31.8369-24.3319,0-32.7453,12.2852-32.7453,37.2979v55.9424h-24.559l-.0208.0098Z" style="fill:#000; stroke-width:0px;"></path><path d="M956.037,113.6592c0-24.1045-11.366-37.2979-38.8878-37.2979s-38.6606,13.1934-38.6606,37.2979,11.3659,36.8438,38.6606,36.8438,38.8878-12.9658,38.8878-36.8438h0ZM854.3839,113.6592c0-35.2539,25.2404-58.9043,62.7654-58.9043s62.9926,23.6504,62.9926,58.9043-25.2405,58.6777-62.9926,58.6777-62.7654-23.8779-62.7654-58.6777h0Z" style="fill:#000; stroke-width:0px;"></path><path d="M1040.6362,170.0654c-24.332,0-39.342-10.6846-39.342-38.2061v-54.3525h-19.1084v-20.4707h19.1084v-24.7861h24.332v24.7861h40.9316v20.4707h-40.9316v52.9893c0,13.875,6.3694,17.5088,20.4709,17.5088h20.4709v22.0605h-25.9319Z" style="fill:#000; stroke-width:0px;"></path><path d="M1095.2151,105.4727h73.4603v-.4541c0-20.9248-12.0576-30.9287-36.1624-30.9287s-35.9354,11.1396-37.298,31.3828ZM1072.0187,113.6592c0-35.2539,24.1047-58.9043,60.9485-58.9043s58.9045,19.335,58.9045,53.6709c0,4.0977-.2271,7.2773-.9084,10.6846h-95.9752c.9084,21.833,11.6033,33.4258,37.7521,33.4258,23.6506,0,33.4268-7.7314,33.4268-21.1523v-1.8164h24.559v2.0439c0,24.1045-23.6505,40.7051-57.3147,40.7051-37.0708,0-61.4027-20.9258-61.4027-58.6777l.0103.0205Z" style="fill:#000; stroke-width:0px;"></path><polygon points="1204.8275 170.0654 1204.8275 32.25 1229.3866 32.25 1229.3866 101.8389 1261.6777 101.8389 1295.5586 57.0361 1324.2159 57.0361 1281.6842 111.3877 1323.9889 170.0654 1295.1045 170.0654 1261.6777 123.9004 1229.3866 123.9004 1229.3866 170.0654 1204.8275 170.0654" style="fill:#000; stroke-width:0px;"></polygon><path d="M1330.8228,170.0654V57.0361h22.5151v35.0273h1.5898c3.4067-19.1084,18.4166-37.2988,47.074-37.2988,31.3828,0,46.8469,21.1523,46.8469,47.3018v67.999h-24.559v-61.4023c0-21.1523-9.5491-31.8369-32.9725-31.8369-24.7861,0-35.9353,12.7383-35.9353,37.2979v55.9414h-24.5591Z" style="fill:#000; stroke-width:0px;"></path><path d="M1465.2212,170.0654v-98.4736h24.5591v98.4736h-24.5591ZM1465.2212,58.3984v-26.1484h24.5591v26.1484h-24.5591Z" style="fill:#000; stroke-width:0px;"></path><polygon points="1507.0613 170.0654 1507.0613 32.25 1531.6204 32.25 1531.6204 101.8389 1563.9116 101.8389 1597.7925 57.0361 1626.4498 57.0361 1583.9181 111.3877 1626.2228 170.0654 1597.3383 170.0654 1563.9116 123.9004 1531.6204 123.9004 1531.6204 170.0654 1507.0613 170.0654" style="fill:#000; stroke-width:0px;"></polygon><path d="M1672.8528,154.6016c25.6946,0,42.9861-9.5488,42.9861-31.8369l-44.3486,5.0068c-12.7389,1.5898-18.871,4.5518-18.871,13.4199s6.1423,13.4199,20.2439,13.4199l-.0104-.0098ZM1628.0498,142.7705c0-17.5078,14.1017-26.6025,36.3895-29.1113l51.3995-5.4609v-6.5967c0-18.6436-8.1864-25.2402-29.7928-25.2402s-31.1556,6.8232-31.1556,23.4238v.9082h-24.3319v-.9082c0-25.6953,21.3794-45.0303,57.3147-45.0303s52.0808,19.5625,52.0808,46.6201v68.6807h-22.515v-28.2031h-1.5898c-5.9153,19.1074-23.8777,30.4736-49.5724,30.4736-23.4233,0-38.2063-10.9111-38.2063-29.5654l-.0206.0098Z" style="fill:#000; stroke-width:0px;"></path><polygon points="354.1292 172.3369 354.1292 40.1162 293.2116 40.1162 293.2116 17.7354 439.5128 17.7354 439.5128 40.1162 378.8224 40.1162 378.8224 172.3369 354.1292 172.3369 354.1292 172.3369" style="fill:#000; stroke-width:0px;"></polygon></g></g></svg>